<svg xmlns="http://www.w3.org/2000/svg" width="384" height="385" viewBox="0 0 288 289"><path d="M24 144v120h240V24H24z" style="fill:#fff"/><path d="M25.445 235.595v-59.21c0-54.168.019-59.212.219-59.212.326 0 .853-.625 2.397-2.844 5.816-8.361 12.898-16.189 20.681-22.858 8.979-7.694 19.65-14.12 30.334-18.267 16.903-6.328 29.272-7.096 46.115-7.385 15.637-.34 28.445 6.626 40.468 9.073 1.133.215 1.47.096 1.628-.223-.906-8.402-8.604-14.28-15.388-17.557-23.193-11.203-50.367-14.194-73.37-7.288-28.095 8.652-33.79 13.555-52.994 27.724-.05 0-.09-10.661-.09-23.692V30.164c4.037-3.07 6.338-4.253 10.032-5.76l34.786.026c19.188.015 34.854 0 34.812.042-3.25.941-12.839 4.412-12.295 6.884 1.52 5.345 17.97 7.884 22.3 8.833 15.357 3.363 27.52 8.333 40.513 15.496 5.286 2.915 11.589 7.466 15.917 11.47 8.486 7.852 14.742 16.593 18.78 26.244.884 2.11 2.483 6.823 3.154 9.291.629 2.313 1.023 2.791 2.153 2.608 1.142-.358 1.528-1.013 2.349-1.941 4.434-5.792 2.208-14.287 2.448-18.51 4.506 5.842 7.698 12.32 9.102 20.644 2.54 15.054 2.873 32.117-1.455 44.612-.505 1.451-.22 2.378.496 1.613.814-.87 2.532-3.858 4.098-7.13 4.747-9.915 7.113-20.575 7.107-32.014-.004-5.735-.222-8.476-1.17-14.596-.691-4.47-2.374-10.647-3.945-14.484-4.702-10.202-9.348-18.974-15.714-26.174-8.467-9.575-16.056-15.528-25.762-21.37-9.865-5.161-19.735-9.131-29.912-11.494-.031-.032 7.116-.058 15.884-.058 9.653 0 14.766.008 15.959.02 5.106 3.936 8.381 6.981 12.407 10.694a168 168 0 0 1 9.283 9.584c10.25 12.39 19.73 29.182 25.077 43.906 4.084 11.71 5.812 24.31 7.117 34.38.314 2.424.342 10.808 3.03 10.639 1.163-.09 1.624-.291 2.25-.981 5.832-7.51 7.286-17.665 7.292-25.712 0-6.358-.168-8.632-1.23-16.602-2.093-14.767-6.654-26.467-13.516-39.276-3.22-6.012-7.606-11.496-11.535-15.81-3.531-3.876-7.404-7.71-11.158-10.834q6.456-.005 12.913-.008c3.828 5.877 7.41 11.66 10.461 16.533 1.147 1.83 2.23 5.034 3.528 4.919 4.737-.422 2.653-13.706 1.652-18.102-.18-.787-.577-2.643-.926-3.342 0 0 .39-.008 8.82-.008h8.916c6.886 8.666 11.51 19.463 14.962 28.14V111.6l-.001 59.065-.388.22c-.218.124-1.127 1.265-2.07 2.597-14.255 20.12-32.513 34.441-53.753 42.16-10.243 3.273-21.227 5.894-31.578 6.426-14.422.61-30.408-1.967-42.765-6.657-6.347-2.473-11.096-2.766-11.475-.68.744 4.433 4.26 8.612 8.098 10.862 19.183 11.249 51.511 21.37 81.258 12.317 19.551-5.95 40.57-14.184 52.665-27.893l.005 23.752.005 23.752c-1.845 1.322-3.808 2.36-4.604 2.904-2.117 1.447-2.892 1.744-5.363 2.936-1.87 0-14.225-.02-34.265-.008-19.566.013-30.872.008-34.145.008 1.543-.501 3.028-.917 4.362-1.61 6.399-3.322 8.17-7.088 3.032-9.116-9.484-3.743-20.108-5.25-28.558-7.56-8.328-2.305-17.158-5.7-24.253-9.436-5.769-2.962-11.637-6.366-16.328-9.902q-14.937-11.362-22.744-26.788c-2.123-4.194-3.184-6.97-5.268-13.787-.204-1.093-1.357-3.319-2.402-2.33-4.798 4.738-5.042 12.07-4.222 18.03.494 3.18.29 3.621-.865 1.866-8.316-13.8-11.62-31.757-10.883-45.453.01-6.318 1.456-12.772 3.136-17.447.956-2.662 1.373-3.514.95-4.083-.215-.287-.35-.166-.858.453-1.28 1.562-3.905 6.55-5.61 10.657-1.816 4.378-3.349 9.65-4.3 14.792-1.072 5.8-1.977 13.096-1.062 19.13 3.5 23.08 6.56 27.659 12.112 37.977 5.209 8.462 12.215 17.04 19.161 22.478 8.479 6.637 14.945 11.234 23.402 14.97 6.434 2.914 12.509 5.058 18.72 6.68.702.184 1.475.124 2.06.475.057.056-6.851.017-15.35.017-15.255 0-11.735-.013-15.476-.013-36.266-34.74-42.91-47.572-49.476-72.2-2.86-11.29-4.032-23.688-5.983-33.33-.315-1.554-1.769-2.976-3.16-1.991-2.426 2.044-3.903 4.827-4.726 7.47-6.955 22.341-.976 50.229 9.82 69.734 5.791 11.396 15.268 22.216 23.515 29.72.087.08.31.248.495.377.321.221.02.233-5.977.233-6.276 0-6.316-.002-6.316-.28-3.468-4.825-3.17-4.894-5.464-8.123-2.029-2.857-6.542-11.717-8.167-12.198-3.354 4.811-3.618 15.925-1.249 20.601h-8.93l-8.933-.013c-6.073-5.34-12.367-21.57-14.809-27.769Zm154.401-18.592c9.02-.427 20.505-4.286 29.324-7.735 8.882-4.162 19.987-12.34 26.971-20.756 5.835-6.994 10.413-15.824 13.657-22.627.468-1.078 1.022-3.505.163-2.753-12.918 10.959-20.619 23.983-33.444 32.876-9.363 6.493-20.822 12.177-30.353 15.53-7.718 2.24-13.883 3.433-21.553 3.68-1.838.06-2.3.063-2.358.298-.224.919 3.16 1.08 3.588 1.144 2.673.4 10.496.591 14.005.343m51.614-39.029c10.778-9.872 17.516-25.925 21.151-39.321.223-1.101-.203-1.93-1.196-2.333-1.514-.083-1.547-.074-2.267.666-8.176 10.994-15.064 22.331-22.693 31.225-5.788 6.747-12.548 12.205-20.13 16.85-1.566.951-1.954 1.414-1.806 2.151 5.104 4.481 22.508-5.44 26.941-9.238M41.205 150.753c13.176-17.903 27.586-35.391 43.644-49.079.743-.633.534-1.26-.012-1.625-.18-.12-.458-.258-.705-.21-22.21 4.343-36.603 23.416-46.278 47.175-1.5 5.45 1.739 5.792 3.352 3.739zm-1.413-24.984c3.439-3.903 6.736-8.03 9.6-11.11 11.172-11.95 20.967-21.961 35.081-29.869 10.019-6.302 21.826-9.21 30.948-11.133 3.565-.751 7.036-.865 10.577-1.103q1.285-.086 1.488-.287c.262-.263.177-.519-.88-.709-6.672-1.198-14.041-1.136-20.476-.361-8.049.968-16.535 3.115-23.245 6.257-14.484 6.781-24.292 14.98-33.43 27.434-4.756 6.48-9.422 13.673-10.74 20.87-.037.443-.027.452.417.383.258-.04.544-.201.66-.372" style="fill:#000;stroke-width:.136638"/></svg>
