<svg xmlns="http://www.w3.org/2000/svg" width="317" height="317" viewBox="0 0 238 238"><path d="M62 61 4 119l58 57 58 58 58-58 58-58-58-57-58-58z" style="fill:#fff"/><path d="m106.943 220.676-28.5-28.5c-26.072-26.071-28.49-28.508-28.395-28.604.157-.157.11-.712-.215-2.523a83.5 83.5 0 0 1-1.048-20.957c.619-8.024 2.662-16.254 5.808-23.392 5.09-11.182 10.674-17.505 18.642-25.752 7.363-7.69 16.88-10.501 23.845-15.11.65-.442.754-.662.677-.891-4.48-3.609-11.015-2.732-15.857-1.045-16.556 5.772-31.075 17.411-38.823 31.807-9.359 17.688-9.74 22.789-12.163 38.852-.024.024-5.175-5.088-11.447-11.36L8.063 121.797c.466-3.42 1.004-5.098 2.056-7.6l16.756-16.731c9.243-9.23 16.777-16.777 16.777-16.737-1.112 2.018-4.056 8.304-2.605 9.232 3.304 1.841 12.444-4.854 14.985-6.482 9.01-5.773 17.257-9.235 26.959-12.041 3.947-1.142 9.171-1.985 13.182-2.14 7.864-.306 15.082.89 21.671 3.591 1.44.59 4.48 2.09 5.99 2.955 1.416.81 1.836.85 2.292.219.377-.722.248-1.223.196-2.065-.654-4.922-5.814-7.94-7.732-10.088 4.982.643 9.636 2.225 14.319 5.556 8.468 6.023 16.841 14.075 20.772 22.173.456.942 1.039 1.25 1.015.538-.027-.811-.638-3.076-1.459-5.404-2.488-7.058-6.48-13.328-11.988-18.831-2.762-2.759-4.187-3.972-7.589-6.462-2.484-1.819-6.267-3.982-8.87-5.072-7.174-2.648-13.633-4.634-20.162-5.035-8.684-.534-15.202.254-22.686 2.114-7.232 2.264-13.894 5.104-19.93 8.865-.03 0 3.397-3.453 7.618-7.673 4.646-4.647 7.11-7.104 7.69-7.672 4.353-.564 7.395-.674 11.12-.825 3.03-.074 6.056-.022 9.08.145 10.898 1.03 23.543 4.55 33.204 9.063 7.602 3.67 14.499 8.904 19.974 13.122 1.318 1.015 5.367 5.038 6.58 3.663.516-.603.64-.922.61-1.556-.808-6.421-4.996-12.009-8.866-15.885-3.06-3.06-4.236-4.074-8.584-7.399-8.114-6.1-15.941-9.537-25.41-12.399-4.443-1.343-9.194-1.872-13.161-2.058-3.565-.166-7.275-.147-10.585.156l6.21-6.22c4.672.988 9.18 2.047 12.994 2.923 1.433.33 3.496 1.35 4.066.67 2.076-2.483-5.32-7.874-7.918-9.508-.465-.292-1.55-.994-2.054-1.163 0 0 .183-.191 4.241-4.25l4.292-4.29c7.485.857 14.908 3.827 20.746 6.342l28.429 28.43 28.429 28.43-.08.293c-.046.164.065 1.151.252 2.247 2.824 16.545.929 32.226-5.58 46.165-3.354 6.506-7.38 13.054-12.105 18.292-6.65 7.235-15.583 13.69-23.789 17.38-4.245 1.865-6.672 4.009-5.85 5.196 2.492 1.775 6.195 2.094 9.126 1.33 14.647-3.82 35.08-14.508 45.04-33.183 6.546-12.275 12.7-26.355 11.923-38.775l11.435 11.43 11.435 11.43c-.252 1.525-.697 2.969-.819 3.614-.322 1.716-.552 2.232-1.167 3.995-.901.9-6.857 6.837-16.497 16.488-9.412 9.425-14.856 14.864-16.43 16.44.5-.985 1.015-1.9 1.323-2.875 1.481-4.68.521-7.345-2.928-5.848-6.366 2.763-12.206 7.152-17.384 10.107-5.118 2.9-11.002 5.515-16.216 7.132-4.202 1.35-8.665 2.537-12.625 3.093q-12.659 1.72-23.84-1.946c-3.041-.998-4.888-1.823-9.173-4.1-.624-.429-2.25-.945-2.277.034-.03 4.59 3.382 8.236 6.646 10.71 1.769 1.293 1.882 1.604.482 1.315-10.645-2.64-20.878-9.693-27.117-16.64-3.035-3.046-5.446-6.848-6.888-9.907-.82-1.741-1.03-2.352-1.508-2.422-.24-.035-.248.089-.194.63.135 1.368 1.273 5.033 2.43 7.83 1.232 2.981 3.032 6.257 5.05 9.19 2.274 3.307 5.351 7.255 8.695 9.718 12.794 9.424 16.471 10.156 24.11 12.45 6.58 1.566 14.081 2.323 20.042 1.597 7.275-.887 12.6-1.787 18.469-4.06 4.5-1.693 8.455-3.585 12.226-5.794.426-.25.77-.65 1.22-.763.054 0-3.29 3.306-7.38 7.397-7.343 7.343-5.655 5.642-7.455 7.442-34.177.735-43.551-2.244-58.566-10.937-6.811-4.058-13.343-9.461-18.923-13.163-.9-.596-2.284-.581-2.48.563-.183 2.151.446 4.201 1.322 5.87 7.406 14.1 23.706 24.646 38.292 28.838 8.271 2.698 18.041 3.344 25.623 2.987.08-.004.268-.03.42-.058.26-.047.121.103-2.766 2.99-3.02 3.02-3.04 3.04-3.174 2.905-3.992-.653-3.882-.83-6.54-1.28-2.352-.398-8.789-2.49-9.802-1.94.701 3.93 5.924 9.406 9.314 10.517l-4.297 4.298-4.306 4.293c-5.494.354-16.335-4.429-20.494-6.237zm65.368-83.266c4.135-4.546 7.806-11.932 10.391-17.837 2.272-6.278 3.68-15.56 2.992-22.972-.558-6.175-2.605-12.629-4.318-17.464-.293-.745-1.195-2.18-1.246-1.404-.944 11.493 1.619 21.468-.274 31.922-1.381 7.632-4.16 15.883-7.135 22.084-2.637 4.793-5.03 8.335-8.602 12.146-.856.913-1.077 1.137-.992 1.278.334.55 2.041-1.001 2.278-1.176 1.479-1.094 5.336-4.768 6.906-6.577m6.057-43.628c.437-9.94-4.047-20.91-8.745-29.107-.423-.637-1.027-.83-1.7-.547-.768.689-.779.71-.77 1.412 1.357 9.227 3.498 17.999 4.107 25.951.462 6.034-.165 11.915-1.58 17.8-.294 1.212-.259 1.621.167 1.905 4.614-.3 8.216-13.452 8.521-17.414M73.691 172.254c-2.275-14.959-3.756-30.313-2.616-44.63.053-.662-.35-.864-.787-.776-.145.029-.345.096-.44.238-8.6 12.78-6.348 28.889.431 44.982 1.901 3.345 3.624 1.95 3.413.186zM60.986 160.91c-.223-3.534-.623-7.107-.727-9.968-.374-11.13-.478-20.663 2.509-31.262 1.789-7.856 6.072-14.939 9.538-20.255 1.354-2.077 2.97-3.803 4.56-5.622q.577-.66.577-.854c0-.253-.164-.335-.765.082-3.787 2.635-7.305 6.212-10.029 9.682-3.408 4.34-6.46 9.458-8.177 14.2-3.707 10.235-4.481 18.903-2.886 29.295.83 5.409 2.046 11.117 4.876 15.215.195.231.205.23.385-.017.105-.143.165-.358.14-.496z" style="fill:#000;stroke-width:.093009"/></svg>
