<svg xmlns="http://www.w3.org/2000/svg" width="670pt" height="728" preserveAspectRatio="xMidYMid" viewBox="0 0 670 546"><path d="M507.166 55.54c-12.513.073-23.088 11.53-22.674 23.944-.648 37.26-.93 74.548-.95 111.802-.447 4.028 3.085 7.5 1.325 11.363-1.524 17.333-.887 34.81-1.318 52.203-.373 8.262-.475 17.506 5.476 23.95-6.964 7.888-5.247 18.821-5.417 28.485.093 38.815-.186 77.651.139 116.453.198 9.633 7.52 17.112 15.74 21.135 22.034 13.355 43.837 27.156 66.164 39.988 11.136 6.052 26.209.14 30.815-11.543 5.686-14.371 10.318-29.17 14.795-43.958 2.049-8.207.636-16.7.303-25.016 8.561-4.804 13.55-14.688 12.122-24.432-.319-5.943-.464-12.069-1.445-17.85 1.261-2.81 1.328-6.647 2.486-9.038 8.1 1.163 17.094 1.527 23.9-3.826 7.048-5.113 9.508-13.962 9.523-22.304 3.341-64.34 6.145-128.71 8.854-193.08 1.015-10.31-4.954-20.852-14.842-24.411-45.036-17.524-90.024-35.188-135.229-52.265-3.144-1.051-6.442-1.697-9.767-1.6m-348.924-1.544c-47.38 18.736-94.872 37.239-142.285 55.88-9.512 3.842-14.763 14.317-13.783 24.29.031 12.22.574 24.677 2.355 36.645-1.488 10.228.412 20.653.44 30.962 2.106 43.629 3.72 87.29 6.394 130.886.66 11.73 11.32 21.51 23.065 21.128 3.428.065 6.837-.37 10.24-.719.34 3.566 1.477 7.204 2.276 10.484-1.218 8.64-2.184 17.66-.647 26.318 1.608 6.17 5.987 11.223 11.367 14.5-.464 10.579-1.899 21.56 2.282 31.643 4.42 13.242 7.936 26.91 13.944 39.54 6.031 10.673 20.866 14.333 31.304 8.043 23.977-13.473 47.668-27.501 71.263-41.609 8.07-4.994 10.991-14.941 10.168-23.982.138-67.524 1.134-135.055.237-202.577.023-5.643-.626-11.468-1.556-16.848 3.112-8.074 1.36-17.021 1.965-25.475.053-33.181.464-66.381-.408-99.55-1.005-12.416-13.555-22.424-25.878-20.012z" style="fill:#fff;stroke-width:.601793"/><path d="M290.03 2.46c-27.913 10.342-55.507 21.594-83.297 32.288-10.057 4.355-20.875 7.208-30.36 12.716-7.51 5.251-10.067 14.786-9.283 23.543.084 38.61-.203 77.24.113 115.837-.026 3.63 2.372 6.892.245 10.324-.867 17.592-.147 35.256-.383 52.877.093 54.658-.183 109.336.142 163.98.092 9.26 7.18 15.895 13.727 21.458 37.468 34.403 74.413 69.383 112.297 103.327 9.047 7.974 24.232 6.899 31.843-2.525 7.206-7.98 5.263-19.265 5.729-29.1.3-23.997.405-47.996.572-71.995q7.02-1.658 5.396 5.382c.175 27.587-.394 55.212 1.04 82.77.736 12.315 12.58 22.635 24.94 20.993 10.838-.927 17.555-10.48 25.461-16.77 36.868-33.216 73.779-66.416 110.33-99.96 6.857-6.34 6.97-16.143 6.596-24.792-.046-67.369.093-134.749-.07-202.111.37-4.04-2.895-7.56-1.112-11.446 1.291-9.782.24-19.786.58-29.656-.171-30.335.394-60.693-.615-91.012.343-10.133-5.831-20.109-15.595-23.376-36.246-14.05-72.417-28.349-108.757-42.118-8.907-2.41-18.311-.715-27.435-1.224-19.776.18-39.594-.373-59.343.27zm135.138 210.291q-1.184 7.666-2.39 15.33c-13.312-1.316-26.785-2.718-40.272-4.116-.055-5.386-.07-10.4-.082-15.812 14.482-.002 28.964.006 43.446-.007zm-168.202-4.598h46.219c1.989 3.21.926 6.04-.62 9.23.154 3.622-.665 6.273-4.81 5.51-16.778 1.85-33.966 3.525-50.979 5.108a2720 2720 0 0 1-3.214-19.848z" style="fill:#fff;stroke-width:.601793"/><path d="m241.872 44.872-52.8 20.7v120.5h135v9c0 10.4-.5 10 11 7.5 3.6-.7 6.6-1.2 6.8-1s-3.7 5-8.7 10.8l-9.1 10.4v123.3h34.8l.4 6.6c.1 3.6.1 6.8-.1 7s-11.4.4-24.8.4h-24.3v-116.3l-4.7.6c-21.6 2.6-76.5 7.9-77 7.4-.4-.5-8-46.6-8.3-50.5 0-.1-7-.2-15.5-.2h-15.5v211.7l59.8 55.3 59.7 55.3.3-55.1.2-55.2h50v55.1c0 35.2.4 54.9 1 54.7.5-.2 28.4-25.2 62-55.7l61-55.3v-210.8h-33.7l-3.8 25.5c-3.7 24.3-3.9 25.5-6 25.5-1.2 0-19.2-1.8-40-4s-38.2-4-38.7-4c-.4 0-.8-13.1-.8-29v-29h60.9c33.6 0 61.1-.3 61.3-.8.2-.4.2-27.3 0-59.7l-.3-59-54.7-21.3-54.7-21.2-39 .1-39 .1zm-81.3 32.1c-2.2 1-33.8 13.4-70.3 27.6l-66.2 25.9.6 16.5c.4 9.1 1 17 1.4 17.4s2.7.3 5.1-.2 4.5-.9 4.6-.7c.1.1-2 2.9-4.7 6.3l-5 6 3.5 77.9c2 42.8 3.7 78 3.9 78.1.2.2 6.8-.5 14.7-1.5 7.9-1.1 14.7-1.7 15.1-1.3.3.3 1.3 6.1 2.2 12.9.8 6.8 1.8 12.7 2.1 13.1.2.5 5 2.1 10.5 3.6l10 2.8-.7 4.1c-.3 2.3-.7 4.2-.8 4.4-.2.2-4.2-.2-8.9-.9s-8.8-1-9-.8c-.3.2-.6 4-.7 8.4l-.2 7.9 6.4 4.3c3.5 2.4 6.4 4.7 6.4 5.1-.1.4-.4 7-.9 14.7l-.8 13.9 6.8 21.3c3.8 11.7 7.1 21.3 7.4 21.3s16.5-9.4 36-20.8l35.5-20.9.3-109.1c.2-103.5.1-109.2-1.5-109.2-5.4.1-53.7 8-54.2 8.9-.4.6-1.5 6.8-2.5 13.8-.9 7-1.9 12.9-2 13.1-.2.1-6.1 2.1-13.1 4.2s-12.9 4-13.1 4.2c-.1.2 6 19.6 13.7 43.2 7.6 23.6 13.9 43.2 13.9 43.7 0 .4-6.6-2.3-14.7-6l-14.8-6.8-13.2-54.4c-7.2-29.9-12.8-54.7-12.5-55 .4-.3 26.2-5.7 57.5-12l56.7-11.4v-57.7c0-31.8-.1-57.8-.2-57.7-.2 0-2.1.8-4.3 1.8m345.5 56.8v56.8l56.8 11.4c31.2 6.2 57.1 11.7 57.5 12.1.9.8-24.9 109.3-26.1 109.8-.4.1-7 3.1-14.7 6.6s-14.1 6.3-14.2 6.2 6.1-19.7 13.8-43.5c10.2-31.4 13.7-43.6 12.9-44.1-.7-.4-6.2-2.2-12.4-4-6.1-1.8-11.6-3.8-12.2-4.4s-1.9-7.1-2.9-14.3l-1.8-13.3-3.1-.5c-8.1-1.4-50.2-7.5-51.8-7.5-1.7 0-1.8 1.9-1.8 29.6v29.6l5.3-.6c2.8-.4 9.1-1.5 14-2.5 4.8-.9 8.6-1.4 8.5-1-.2.5-6.5 8-14 16.8l-13.8 16.1v129.8l34.4 21.1c19 11.6 34.8 21.1 35.3 21.1s4-9.6 7.7-21.4l6.9-21.3-.7-12.9c-.4-7.1-.9-13.6-1.2-14.5-.3-1.1 1.7-3 6.3-6.1l6.8-4.5-.3-8.3-.4-8.3-5.6.7c-3.1.4-7.4.9-9.4 1.3-3.8.6-3.8.5-3.9-3.1-.1-2-.2-4.1-.3-4.8-.1-.6 4.1-2.3 9.6-3.7 5.3-1.4 9.9-2.9 10.2-3.2.4-.3 1.3-6.2 2.2-13s1.9-12.7 2.2-13c.4-.4 7.2.2 15.1 1.3 7.9 1 14.5 1.7 14.7 1.5.4-.4 9.5-200.9 9.2-201.3-.6-.5-137.1-53.4-137.9-53.4-.5 0-.9 24.2-.9 56.7"/></svg>
