<svg xmlns="http://www.w3.org/2000/svg" width="745" height="449" viewBox="0 0 559 336"><path d="M355.79 250.632c-10.617 1.12-21.384 3.487-31.023 8.178-8.832 5.623-17.273 12.87-20.973 23-4.564 11.123-4.47 23.477-7.35 34.946-5.178 8.888-4.018 19.6-6.444 29.309-3.652 22.12-8.402 44.051-12.427 66.258-2.235 13.98 8.058 28.425 22.18 30.378 15.5 1.47 31.156.608 46.717.984 22.325-.082 44.684.4 66.986-.096 13.421-.604 24.058-13.562 23.042-26.788-1.312-19.863-7.692-38.951-10.838-58.548-3.829-19.132-9.027-38.013-11.42-57.397-1.576-10.498-5.627-20.505-11.232-29.445-8.224-11.66-22.313-16.486-35.68-19.316-3.786-.847-7.639-1.593-11.538-1.463zm-26.761 9.592c1.627-.273 1.174-.114 0 0zm-20.332 45.822c1.791-.799 2.405-.946 0 0z" style="fill:#fff;stroke:#b00;stroke-width:0;paint-order:stroke fill markers" transform="translate(0 -.45)scale(.75034)"/><path d="M350.506 5.398C288 5.943 225.048 10.592 164.315 26.104c-12.283 4.032-25.763 5.576-36.594 13.118-18.863 6.182-36.27 16.868-50.788 30.36-18.383 17.555-24.677 47.28-12.534 70.059 5.894 12.318 15.72 22.372 27.39 29.33 5.669 2.153.064 3.365-2.12 5.734-8.576 7.005-10.644 19.188-7.604 29.433 2.706 16.66-2.234 33.078-4.032 49.524-1.146 10.028 1.048 21.19 9.557 27.546 9.48 7.42 22.044 4.988 33.218 5.054 20.874-1.391 41.338-3.555 62.25-5.123-11.839 7.723-25.38 12.78-36.196 22.013-5.17 2.795-10.962 4.572-15.284 8.817-8.704 4.972-18.467 7.94-27.028 13.115-6.395 6.2-15.781 7.235-22.379 13.124-9.852 6.787-20.486 12.438-30.365 19.228-12.848 7.868-25.503 16.713-35.258 28.316-4.556 6.287-8.626 12.926-12.815 19.46-7.41 12.325-3.83 30.284 9.053 37.438 7.965 5.372 17.71 3.165 26.601 2.743 47.765-1.45 95.666-1.055 143.617-1.96 10.214-.232 17.804-7.934 23.152-15.888 4.401-6.236 9.65-11.716 15.298-16.796 4.27-4.052 5.752-10.267 10.84-13.453 5.466-4.802 8.438-11.54 13.53-16.677 4.914-5.942 8.334-13.32 15.134-17.414 5.772-5.081 8.058-12.84 13.968-17.836 7.442-8.778 16.146-17.886 16.984-29.985 2.105-10.47 2.514-21.537 7.702-31.118 2.65-5.512 8.098-9.215 12.226-13.66 3.153-4.096 8.846-2.672 13-5.101 6.267-3.962 14.045-2.728 21.13-3.63 13.51-.876 27.494-1.434 40.533 2.645 4.292 2.218 9.325 2.853 12.622 6.627 5.195 2.986 10.112 6.699 12.722 12.256 3.391 7.044 4.455 15.158 5.584 22.882.008 8.641 2.291 17.173 7.714 24.027 6.833 10.638 14.336 20.935 23.466 29.714 8.21 11.416 15.74 23.319 24.757 34.146 3.22 4.909 7.427 9.077 11.58 13.094 4.962 7.224 10.849 13.767 15.525 21.21 5.664 8.741 16.114 12.782 26.242 12.567 41.206 2.13 82.498.512 123.708 2.303 22.917 1.367 46.659 4.58 70.072 2.415 14.352-1.644 26.298-16.037 23.32-30.542-1.933-11.937-12.541-19.377-19.968-27.98-6.859-6.95-13.48-14.482-22.377-18.83-6.283-3.164-10.808-8.914-17.487-11.401-8.08-5.137-16.266-10.157-24.698-14.714-8.155-4.85-15.918-10.375-24.533-14.456-6.682-4.623-14.124-7.786-21.43-11.236-10.436-5.569-20.167-12.435-30.694-17.793-7.801-7.254-18.255-10.627-26.453-17.402-2.055-1.823-9.654-5.85-3.034-4.795 14.758.093 29.497.86 44.094 3.11 18.522 1.94 37.016 4.685 55.605 5.688 13.838-.135 25.287-12.89 24.983-26.548.539-7.377-2.07-14.637-1.92-21.874 1.55-10.118 2.698-20.891 8.336-29.986 5.913-10.577 3.824-25.02-5.845-32.67-10.095-8.394-23.988-5.742-36.064-5.71-7.857.336-15.708.82-23.546 1.473 9.806-7.449 19.859-14.797 27.691-24.454 4.222-5.374 8.627-10.72 11.837-16.75 1.73-6.522 4.33-12.974 4.808-19.735-.502-10.99-5.128-21.504-10.644-30.907-6.611-11.578-17.434-19.968-29.36-25.573-9.8-5.293-20.106-9.778-30.124-14.48-10.924-7.358-24.533-8.06-36.706-12.31-50.032-11.703-101.336-17.112-152.6-19.43-17.717-.693-35.446-1.17-53.178-1.058Zm7.504 88.392c23.312 1.447 46.784 2.368 69.812 6.525 11.125 2.811 22.952 3.771 33.354 8.874-4.338 2.166-7.727 5.83-11.818 8.264-20.956 9.949-43.246 15.88-65.06 23.294-6.866 2.028-13.411 4.592-20.124 6.059-23.89-7.143-48.521-11.694-72.298-19.144-11.645-3.458-23.898-6.484-33.577-14.152-1.663-1.54-6.372-2.879-6.75-4.195 14.159-5.155 28.31-9.109 43.425-10.778 21.053-2.38 41.849-4.243 63.036-4.747zm-104.086 25.44c.282 1.96-.45-2.401 0 0zm406.322 1.945c-.193 1.484.25-2.461 0 0zm-213.272.859c.035-.1.403-.583 0 0zM651 138.607c-3.332 2.508-.682.516 0 0zm-8.834 4.895c-5.057 1.03-4.79.89 0 0zm-14.908 18.992c-1.362 1.624 1.415-1.806 0 0zm-251.412 93.432c-1.201-1.64-1.542-2.255 0 0zm1.853 2.14c-.92-.857-.999-1.12 0 0zm-162.237 2.25c1.086-.273 1.013-.131 0 0zm192.315 15.227c-.04-.008-.173-.065 0 0zM144.975 304.58c2.571-.665 2.717-.536 0 0zm-32.813 16.597c2.503-.785 7.247-1.761 0 0zm-17.373 10.327c2.642-.696 2.991-.563 0 0zm160.405 35.706c-1.852.992 1.295-.74 0 0zm446.09 1.702c7.569 2.935-3.487-1 0 0z" style="fill:#fff;stroke:#b00;stroke-width:0;paint-order:stroke fill markers" transform="translate(0 -.45)scale(.75034)"/><path d="m228 23-13 1-14 1-9 1-10 1-7 1-7 1-5 1-6 1-6 1-6 1-4 1-4 1-4 1-5 1-3 1-3 1-4 1-4 1-3 1-3 1-2 2-2 1-3 1-4 1-2 1-2 1-2 1-2 1-2 1-3 2-3 2-3 2-2 2c-2 0-10 9-10 10l-1 2-1 2-1 3-1 7 1 7 1 2 1 2 1 2 1 2 1 1c0 1 7 8 9 8l4 3 4 3 2 1 2 1 2 1 2 1 2 1 2 1 2 1 3 1 2 1 2 1 2 1 2 1 2 1 2 1 2 1c0 1 1 2 3 2l3 1 2 1 2 1 3 1 3 1 4 1 3 1 2 1 2 1 3 1 3 1 3 1 3 1 4 1 3 1 3 1 3 1 3 1 3 1-14 1-15-1-13-1-14-1-7-1-7-1-6-1-7-1-6-1c-5 0-6 0-6 2l1 2 1 13-1 14-1 5-1 5-1 5v6h11l11-1 12-1 11-1 13-1 12-1 12-1 11-1 3-1 3 1 2 1c1 0 2 0 2 2l-1 2-1 2-1 2-1 1c0 1-2 4-5 6l-5 7-1 1c-1 0-5 3-5 5l-2 1c-2 0-3 0-4 2l-2 2-1 1-2 1-3 2-3 2-2 1-2 1-3 2-4 2-2 1-2 1-2 1-4 4-2 1-2 1-2 1-2 1c-1 0-2 0-3 2l-3 2-2 1-2 1-3 1-2 1-2 1-2 1-2 1-2 1c-1 0-2 0-3 2l-3 2-2 1-2 1-2 1-2 1-3 1-2 2-3 2-3 2-2 1-2 1-3 2-3 2-2 1-1 1-2 1-1 1-2 1-1 1-2 1-2 1-4 3-4 3-6 5-2 2-2 4-2 3-2 3-1 1-2 3c0 1 1 2 3 2l2-1 57-1h56l3-4 4-5 3-4 3-3 4-3 1-2 4-7c1 1 6-4 6-5s2-4 5-6l5-7c0-2 8-10 10-10l1-2 1-2 1-2 2-2 4-4 3-4 3-4 1-1 1-6 1-6 1-6 1-5 1-2 1-2 1-3 2-5 2-3 1-1 12-12 4-2 4-2h3c2 0 3-1 3-2l4-1 5-1 19-1a83 83 0 0 1 25 2l6 1c0 1 1 2 3 2l3 1 3 1c2 0 3 1 3 2l1 2c1 0 4 1 6 4l5 4 1 1 2 4 2 3 1 1 1 4 1 4 1 4 1 4 1 6c0 6 0 7 2 9l2 3 3 5 3 4 5 6c1 0 4 2 4 4l3 4 3 4 3 5 3 4 4 5 4 5c0 1 4 6 6 6l1 1 2 4 2 2 2 3 2 2 3 5 3 4 52 1a507 507 0 0 1 74 3c21 0 22 0 22-2l-1-2a82 82 0 0 1-14-14l-4-4c-1 1-3-1-4-2l-5-3a3 3 0 0 1-3-2 3 3 0 0 0-2-2 5 5 0 0 1-4-2l-3-2-2-1-2-1-3-2-3-2-2-1-2-1-2-1-2-1-1-1-2-1-2-2-2-1-2-1-2-1-2-1-2-1-3-2-3-2-2-1-3-1-2-1-2-1-2-1-2-1-3-2-3-2-2-1-2-1-3-2-3-2-2-1-3-1-2-1c0-2-3-4-4-4l-2-1-2-1-3-2-3-2-2-1-1-1-3-2-3-2-6-6-5-4-1-1-4-5-4-6-1-2c-1 1-1-1-1-2l-1-3c-2 0-1-3 0-5l28-1 27 1 9 1 9 1 8 1 9 1 8 1 9 1 2 1c2 0 2-1 2-6l-1-5-1-6 1-6 1-7 1-6 1-3 1-3 1-2 1-2 1-2 1-2 1-1-11-1-10 1-13 1-12 1-14 1-13 1-24 1-23-1 3-1 3-1 2-1 2-1 3-1 3-1 2-1 2-1 2-1 2-1 3-1 4-1 2-1 2-1 2-1 2-1 2-1 2-2 2-1 2-1 2-1 3-1 2-1 2-1 2-1 2-1 2-1 3-2 3-2 3-2 3-2 3-2 2-2 3-2 3-2 4-4 4-4 4-6 1-2c1 1 1-1 1-2l1-3 1-3-1-3-1-4-2-4-2-3c0-2-7-8-8-8l-3-2-4-2-2-1-2-1-2-1-2-1-2-1-2-1-2-1-3-1-3-1-2-1-2-2-3-1-3-1-5-1-4-1-3-1-3-1-5-1-4-1-5-1-5-1-5-1-5-1-8-1-7-1-7-1-7-1-11-1-10-1-15-1-14-1-39-1zm54 29 14 1 13 1 7 1 6 1 5 1 5 1 4 1 4 1 5 1 4 1 2 1 2 1 2 1 2 1 2 1c1 0 8 6 8 8l1 1 1 4-1 4-1 1c0 2-10 13-12 13-1 0-4 2-4 4l-2 1-3 1-2 1-2 1-2 1-2 1-3 1-3 1-2 1-2 1-3 1-3 1-3 1-4 1-3 1-3 1-3 1-3 1-3 1-3 1-3 1-3 1-3 1-4 1-3 1-3 1-4 1-5-1-3-1-3-1-4-1-4-1-4-1-4-1-4-1-5-1-4-1-4-1-3-1-3-1-4-1-4-1-3-1-4-1-3-1-3-1-3-1-3-1-2-1-2-1-2-1-3-1-1-1-2-2-2-1-4-2-3-2c-2 0-4-3-4-5l-2-3-2-4-1-3-1-2 1-3 1-1c0-2 7-8 9-8l1-1 2-1 2-1 3-1 3-1 4-1 3-1 3-1 3-1 5-1 5-1 8-1 7-1 13-1 12-1 16-1z"/><path d="m263 207-4 1-4 1-2 1-2 1-1 2c-2 0-5 3-5 6l-1 2-1 7-1 7-1 5-1 6c-2 0-2 1-2 5l-1 5-1 6-1 7-1 5-1 5-1 5-1 5-1 5-1 6-1 5-1 5-1 2c0 2 1 2 42 2h41v-4l-1-4-1-6-1-5-1-4-1-4-1-5-1-5-1-6-1-5-1-4-1-4-1-5-1-5-1-4-1-4-1-8-1-7-1-3-1-3c-1 0-2-1-2-3s-1-3-2-3l-2-2-2-1-2-1-4-1-4-1-4-1z"/></svg>
