<svg xmlns="http://www.w3.org/2000/svg" width="491" height="491" viewBox="0 0 368 369"><path d="M196 160c-7 2-13 9-12 17l-1 8c-7 5-12 15-8 24 4 8 14 11 22 7a35 35 0 0 0 20-42c-1-7-8-14-16-14zm-18-9c-13 1-25 14-27 27-1 9-1 21 8 27 8 6 21 4 25-6 2-4 1-10 1-14 6-6 12-12 10-21a16 16 0 0 0-17-13m6-121c-40 0-78 16-106 43a154 154 0 0 0-47 95c-2 19-1 39 4 57 8 29 25 55 47 75a150 150 0 0 0 83 38h39a154 154 0 0 0 96-52 152 152 0 0 0 37-77c2-15 1-31 0-46a153 153 0 0 0-46-89 143 143 0 0 0-47-32 145 145 0 0 0-60-12m7 133c2 1 6 1 8 3 4 6 9 12 8 20a23 23 0 0 1-19 21c-3 1-6 1-9-1l-9-2c-4-7-10-15-7-23 1-8 6-16 15-18l8-2zM183 0c-18 0-37 2-54 7A187 187 0 0 0 4 140a158 158 0 0 0-4 42c0 18 0 37 6 54 6 19 14 37 25 54a215 215 0 0 0 41 43c15 11 31 19 48 26a132 132 0 0 0 49 9c16 1 32 1 47-1a185 185 0 0 0 151-161v-50a183 183 0 0 0-58-108c-17-17-39-30-63-39a189 189 0 0 0-63-9m2 39a146 146 0 0 1 145 137 144 144 0 0 1-44 112 142 142 0 0 1-106 42 145 145 0 0 1-122-73 139 139 0 0 1-17-46A146 146 0 0 1 185 39" style="fill:#fff;stroke-width:.507463"/><path d="M164 28A160 160 0 0 0 54 97a214 214 0 0 0-19 39 131 131 0 0 0-7 48c0 18 0 22 2 31a158 158 0 0 0 122 123c15 4 42 4 58 1a157 157 0 0 0 128-123c2-9 3-13 3-32-1-18-1-23-3-31A158 158 0 0 0 216 30a226 226 0 0 0-52-2m45 19a148 148 0 0 1 55 23l19 16a137 137 0 0 1 39 124 139 139 0 0 1-39 73 139 139 0 0 1-74 39c-13 3-39 2-52 0a135 135 0 0 1-72-39q-31.5-31.5-39-75a173 173 0 0 1 0-48A142 142 0 0 1 154 48c17-4 38-4 55-1"/><path d="M173.992 48.211h20v300h-20z" style="transform-box:fill-box;transform-origin:50% 50%" transform="rotate(45 18.509 -13.348)"/><path d="M173.992 48.211h20v300h-20z" style="transform-origin:183.992px 198.211px" transform="rotate(135 2.818 -9.58)"/></svg>
