<svg xmlns="http://www.w3.org/2000/svg" width="400" height="341.333" viewBox="0 0 300 256"><path d="M142.418 177.442c-11.577 1.365-22.713 5.24-34.018 7.976-8.062 1.466-15.998 6.3-18.56 14.47-3.627 10.427 3.059 20.284 7.877 29.056 4.802 8.054 10.22 17.859 20.473 19.237 8.377 1.753 16.512-3.043 21.365-9.658 7.587-9.12 16.21-17.515 22.586-27.562 6.797-11.253 1.167-27.5-11.178-32.048a22 22 0 0 0-8.545-1.47m65.317 25.695c-5.947.228-10.951 3.713-15.407 7.25-4.732-.47-9.96-.852-14.403 1.538-9.496 4.003-12.34 14.66-15.195 23.566-2.72 9.729-7.65 19.3-7.065 29.624.873 9.797 9.326 17.517 18.89 18.735 6.092 1.356 12.291 1.992 18.255 3.863 6.053.638 11.82-1.747 16.626-5.252 8.773-3.995 20.277-2.958 26.476-11.51 5.331-6.472 4.96-15.577 1.909-22.991-3.883-11.357-5.954-23.374-10.955-34.314-3.752-6.832-11.36-10.957-19.13-10.509m41.715-29.078c-10.177 2.398-16.298 12.644-17.702 22.366-1.433 9.777 6.356 16.973 11.7 24.09 6.296 7.434 11.41 16.083 19.088 22.216 8.717 6.108 21.671 3.872 27.902-4.75 6.43-9.053 12.562-18.5 17-28.704 4.089-10.69-2.604-23.696-13.733-26.489-12.674-2.853-25.064-7.086-37.892-9.172-2.136-.278-4.24.277-6.363.444M190.435 39.373c-6.754 1.603-12.06 6.78-14.66 13.077-3.546 3.47-9.256 3.285-12.584 7.206-7.6 6.384-8.805 17.759-4.597 26.41 4.567 11.553 8.505 23.4 13.634 34.703 5.071 9.112 16.284 12.606 26.092 12.61 5.577-.254 10.211-3.576 14.575-6.61 9.675-.298 17.289-7.953 20.4-16.676 4.615-11.229 10.194-22.143 13.79-33.746 2.594-10.853-4.965-22.276-15.649-24.909-6.923-2.495-14.503-2.876-21.27-5.717-5.113-5.223-12.486-7.912-19.73-6.348m85.58 47.543c-10.005 1.487-15.519 10.74-22.345 17.14-5.941 6.67-13.035 12.46-17.944 19.949-4.045 7.215-2.18 15.862 1.804 22.662 2.3 6.947 6.97 13.492 14.212 15.834 8.634 2.901 17.707-.33 26.48-.817 8.725-1.623 18.321-.72 26.135-5.527 8.277-5.534 10.856-16.801 7.324-25.846a139.3 139.3 0 0 0-18.144-37.202 20.94 20.94 0 0 0-17.522-6.193M119.649 88.51c-7.805 1.133-13.316 7.238-17.085 13.725-7.023 10.72-13.27 22.287-16.379 34.785-1.886 10.53 5.603 21.233 15.956 23.562a368 368 0 0 0 36.53 6.453c10.035.728 18.489-6.773 22.229-15.573 3.195-5.797 7.49-11.655 6.413-18.673-.866-9.992-9.898-15.924-15.845-23.046-6.358-6.193-11.599-13.767-18.979-18.758-3.874-2.309-8.405-2.916-12.84-2.475" style="fill:#fff;stroke-width:.569363" transform="scale(.8)"/><path d="M90.443-12.637c-10.556 2.53-17.519 14.21-14.617 24.693 3.352 10.816 9.217 20.67 13.753 31.016 1.281 3.214 3.67 6.66 4.287 9.723-3.808 2.716-6.597 6.518-9.457 10.055C73.978 73.123 65.68 85.49 58.94 98.454c-8.273 16.557-14.058 34.419-16.592 52.77-14.328 2.715-28.941 4.197-43.032 8.007-10.47 3.357-16.59 16.007-12.343 26.224 2.99 8.473 12.017 13.476 20.773 13.128 12.108.91 24.685 2.023 37.044 2.99 3.462 14.658 9.04 28.849 16.025 42.182 9.336 17.16 22.422 32.014 36.954 44.957-5.157 14.328-10.956 28.456-15.726 42.905-3.17 10.96 4.909 23.282 16.199 24.776 9.052 1.716 17.795-3.967 22.208-11.65 16.132-23.09 31.297-46.858 47.835-69.66 7.234-8.456 8.237-20.059 12.122-30.124a2067 2067 0 0 1 5.116-15.593c9.926 3.33 21.83-1.79 25.548-11.715 3.129-8.228.567-16.861.658-25.348-1.277-20.945-2.028-41.951-3.584-62.861-.928-9.226-9.274-16.697-18.406-17.364-4.825-12.55-10.026-25.308-14.457-37.805 11.31-1.914 21.243-11.838 20.934-23.694-.005-6.714-3.297-12.773-4.443-19.27-3.32-10.375-14.813-15.91-25.21-14.465-10.245 1.014-20.027 4.606-29.454 8.578-9.686-11.215-18.41-23.316-28.847-33.85-4.945-4.054-11.58-5.608-17.819-4.21m37.325 125.983a943 943 0 0 1 20.04 21.436c-2.73 4.004-5.093 8.265-6.968 12.735-11.991-1.869-23.96-3.717-35.656-6.206 3.772-12.022 9.73-23.338 17.444-33.297zm15.1 76.56c-.01-.077-.01-.267 0 0m1.149 7.145c2.516 2.627 1.366 5.14-1.107 7.248-6.798 8.287-14.066 16.708-21.387 24.915-5.532-7.068-10.063-15.315-13.428-23.408 12.14-3.088 23.913-6.314 35.744-9.022z" style="fill:#fff;stroke-width:.569363" transform="scale(.8)"/><path d="M163.03 261.845c-8.633.333-15.236 6.766-19.433 13.79-5.033 7.578-11.635 15.767-9.691 25.509 1.557 9.035 9.598 15.35 18.249 17.164 13.539 3.429 27.333 6.842 41.356 7.095 11.02.175 20.682-10.028 19.795-21.034-.815-7.198-4.5-13.749-5.505-20.964-1.988-9.727-10.977-16.946-20.81-17.299-7.833-.902-15.31-4-23.195-4.28l-.57.014z" style="fill:#fff;stroke-width:.569363" transform="scale(.8)"/><path d="M305.234-13.585c-9.182 2.815-14.138 11.679-20.524 18.153-6.978 8.402-14.868 16.107-21.086 25.096-2.396 4.502-2.033 9.72-2.732 14.526-3.126 4.515-6.02 9.401-9.82 13.341-3.691 1.02-7.907-.102-11.396 1.992-8.148 2.835-11.397 11.362-14.12 18.793-3.997 9.575-8.164 19.08-12.447 28.53-10.787-.402-20.352 8.967-20.607 19.684-1.08 14.866-2.979 29.315-1.795 44.286.918 12.247.673 24.64 2.607 36.78 1.923 7.68 8.654 14.024 16.549 15.054 3.491 12.06 6.783 24.183 10.606 36.143-10.033 2.847-22.404 3.678-28.518 13.427-6.556 9.685-2.633 21.898 1.125 31.844 3.56 9.722 13.786 16.37 24.154 15.044 11.973-1.211 23.577-4.73 35.02-8.308 7.797 11.495 14.568 23.721 22.987 34.769 7.582 9.024 23.144 8.867 30.323-.55 5.765-6.485 5.479-16.03 2.222-23.638-3.743-11.566-7.76-23.127-11.553-34.623 18.064-15.18 33.47-33.705 43.912-54.94 5.049-9.734 8.5-20.178 11.458-30.707 15.337-1.288 31.32-.943 46.734-3.567 10.553-2.466 17.634-14.207 14.532-24.659-2.06-8.528-10.175-14.167-18.59-15.308-12.947-2.84-25.993-5.193-38.991-7.777-1.055-13.665-4.714-27.07-9.257-39.96-7.486-19.456-18.126-37.851-32.812-52.777-2.406-2.344-5.276-4.591-2.12-7.72 6.21-12.558 13.265-24.743 18.71-37.654 3.338-10.312-3.055-22.596-13.702-25.161-3.482-1.172-7.33-.907-10.869-.113m-25.998 120.552c4.74 8.048 9.283 16.257 12.24 25.166a140 140 0 0 1 2.518 7.578c-12.094 1.537-24.058 3.167-36.165 4.561a64.7 64.7 0 0 0-4.894-11.075c8.653-9 17.565-17.755 25.95-27.009l.234.52zm-24.558 86.03c11.5 3.027 22.898 6.498 34.544 8.944-4.066 8.93-9.204 17.384-15.313 25.066a723 723 0 0 1-22.872-29.016c1.386-1.28 1.946-4.837 3.64-4.995" style="fill:#fff;stroke-width:.569363" transform="scale(.8)"/><path d="M211.3 8.304c-10.647.016-19.758 9.357-20.055 19.905-.325 9.219-2.77 19.263 2.017 27.764 3.995 7.11 12.053 9.874 19.63 11.207 10.305 1.877 20.196 5.327 29.825 9.366 9.56 3.584 20.631-.717 26.05-9.178 5.178-7.5 12.788-14.773 12.567-24.537.324-9.33-6.95-17.082-15.4-20.008-17.252-7.584-35.77-13.222-54.633-14.52" style="fill:#fff;stroke-width:.569363" transform="scale(.8)"/><path d="M75.3 15c22 46.2 26.1 54.6 27.1 55.5 3.7 3.3 27.6 29.4 27.6 30.2 0 .5-1.6 2.5-3.6 4.4-4.2 4-8.1 11.5-9 17.6-.4 2.8-1.1 4.3-2 4.3-2.8 0-33.9-5.1-36.7-6-1.5-.5-3.8-.5-5-.1-1.2.5-4.6 1.2-7.6 1.6l-5.4.7.6-6.2c1.7-15.6 9.2-33.1 20.3-46.8 6-7.6 6.6-8.6 5.5-10.8-.6-1.3-1.5-2.4-2-2.4-.6 0-.8-.6-.5-1.4s-.1-2.6-.8-4.1l-1.4-2.7-3.3 2.8c-3 2.5-3.1 2.9-1.7 4 1.4 1 1.3 1.1-1 1.1-2.8 0-3.2.5-11.1 10.8C54.6 81.6 46 105.9 46 122c0 4.5 2.3 3.7-24.3 8.1-10.8 1.8-19.6 3.3-19.5 3.5.3.3 44.4 3.9 60.1 4.9 4.9.4 10 1 11.4 1.6 1.5.6 3.1.5 4.3-.1 1.1-.6 9.7-2.8 19.2-5.1 9.5-2.2 17.8-4.2 18.5-4.4s1.8 1.8 2.8 5.1c.9 3 2 5.2 2.5 4.9.6-.4 1 .4 1 1.6 0 1.3 1.4 3.8 3.2 5.6 2.9 2.9 3 3.4 1.7 5-.9 1-6.4 7.6-12.4 14.8-5.9 7.1-11.8 13.9-13.1 15-1.3 1.2-2.4 3-2.4 4.1 0 2.4-1.9 8.5-3 9.7s-13.5-10.7-18.5-17.8c-5.2-7.3-10.6-18-13-25.6-1.8-5.6-1.8-5.7-6.3-6.3-7.3-1-10.2-.8-10.2.8 0 3.1 5.2 17.8 9 25.4 6.7 13.7 20 29.2 31.8 37.2l2.2 1.5-6.5 17.5c-3.6 9.6-7.2 19.2-8 21.2-.8 2.1-1.3 3.8-1.1 3.8s9-12.7 19.4-28.3c10.5-15.6 19.7-28.9 20.6-29.6.9-.8 1.6-2 1.6-2.8 0-2 12-38.6 13-39.6.4-.5 2.5 0 4.6 1.1 2.2 1.1 5.3 2.3 7 2.6l3.2.7-.5-8.3c-.3-4.6-1-18-1.6-29.8l-1.2-21.5-4.6.2-4.7.1-7.6-19.4c-4.2-10.6-7.6-19.6-7.6-19.9s-1.8-2.5-4-4.7c-2.2-2.3-4-4.7-4-5.4 0-1.4 12.6-6.9 18.1-7.9 6.3-1.2 6.5-1.7 3.2-10.5-.4-.8-.5-1.9-.4-2.3.7-3.2-12.4-.5-23.6 5-6.3 3.1-7.6 3.4-8.7 2.2-.7-.8-6.9-8.2-13.6-16.4C77.2 11.2 71.1 3.8 70.3 3s1.5 4.6 5 12M212 27.7c-12.2 14.2-23.3 26.8-24.6 28s-2.4 2.6-2.4 3.2c0 .5-3.7 9.3-8.2 19.6-6.5 14.8-8.5 18.5-9.7 18-.9-.4-3-.9-4.7-1.2l-3.2-.5-.5 5.8c-.3 3.3-.5 7-.5 8.4 0 2.2-2.8 25.5-4.7 40.2-.8 5.8 0 6 8.6 2.4l5.6-2.3 5.1 17.6c2.8 9.7 5.4 18.9 5.8 20.6.4 1.6 1.8 4.3 3.1 5.9 4.1 4.9 5.7 8.7 4.1 9.7-2.2 1.4-16.9 5.7-23.5 7-3.9.7-6.3 1.7-6.3 2.5 0 3.4 2.5 11.4 3.7 11.8 3.1 1.2 21.6-3.5 34.3-8.8 1.1-.5 4.4 4.1 13 17.8 6.3 10.1 11.6 18.3 11.7 18.2.2-.2-4.9-15.3-11.2-33.6-6.3-18.4-11.5-34.1-11.5-34.9s-1.3-2.9-2.9-4.6c-3.6-3.8-23.1-29.2-23.1-30.1 0-.3 1.3-2.2 3-4 3.5-4.1 6.5-9.6 7.5-14.2.3-1.7 1-3.2 1.4-3.2s9.8 2.5 20.7 5.6c14.8 4.1 21.4 5.5 25.8 5.4 3.3-.1 6.3-.3 6.8-.6 1.4-.9.8 4.2-1.3 11.2-4.2 13.7-15.7 32-24.6 39.2l-3.7 3 1.7 5.4c3.2 10.4 3.2 10.4 13.5.2 14.5-14.4 23.8-30.5 28.7-49.7 1.2-4.9 2.8-9.3 3.5-9.7s9.2-1.1 18.9-1.5 19.4-1 21.6-1.4l4-.7-4.5-.8c-2.5-.5-18.9-3.7-36.5-7.1l-32-6.3-18.5 2.4c-26.3 3.3-24.6 3.5-25.3-3-.6-5.8-3.1-11.5-7.2-16.4-1.4-1.6-2.5-3.4-2.5-3.9 0-.4 6.9-7.7 15.3-16 11.1-11 16-16.6 17.7-20.3 1.3-2.7 2.6-5 3-5s3.5 2.9 6.9 6.5c3.7 3.8 7.1 6.5 8.3 6.5 1.7 0 1.8.3.8 1.5-.9 1.1-.8 2 .9 4.4 5.5 7.7 13.1 28.4 13.1 35.6 0 1.8.9 2.3 5.8 3.3 10.4 2.2 10.3 2.4 7.6-10.6-2.1-10.5-4.8-18.2-9.6-27.7-5.2-10.3-9.4-16.2-19-26.1l-7.8-8 8.1-16c4.5-8.7 9.2-17.8 10.5-20.2 1.2-2.3 2.1-4.2 1.9-4.2S224.2 13.6 212 27.7m-54.2 0c-.3 3.7-.4 6.9-.3 7 .1.2 3.5.9 7.6 1.7 7.2 1.4 11.7 2.8 19.1 6l3.7 1.6 4.5-5.9 4.5-5.9-6.9-3.1c-7.2-3.2-19-6.5-27.1-7.6l-4.7-.6zm-43.1 184.5c-1.3 1.8-3.2 4.5-4.2 6.1l-1.7 2.7 3.8 1.6c10.9 4.6 38.8 8.8 40.6 6.2.4-.7.6-2.2.3-3.3-.2-1.1-.5-3.9-.5-6.3V215h-5.9c-6.7 0-18.4-2.1-25-4.4-2.4-.9-4.5-1.6-4.7-1.6s-1.4 1.5-2.7 3.2"/></svg>
